<?xml version="1.0" standalone="no"?>
<!DOCTYPE svg PUBLIC "-//W3C//DTD SVG 20010904//EN"
 "http://www.w3.org/TR/2001/REC-SVG-20010904/DTD/svg10.dtd">
<svg version="1.0" xmlns="http://www.w3.org/2000/svg"
 width="546.000000pt" height="546.000000pt" viewBox="0 0 546.000000 546.000000"
 preserveAspectRatio="xMidYMid meet">
<metadata>
Created by potrace 1.14, written by Peter Selinger 2001-2017
</metadata>
<g transform="translate(0.000000,546.000000) scale(0.100000,-0.100000)"
fill="#000000" stroke="none">
<path d="M2832 5403 c-6 -3 -10 -9 -6 -14 3 -5 -1 -9 -8 -9 -9 0 -9 -3 2 -10
10 -7 12 -12 4 -17 -6 -5 -16 -18 -23 -31 -7 -12 -16 -20 -21 -17 -4 3 -7 -6
-5 -20 1 -16 -3 -25 -11 -25 -8 0 -11 -6 -7 -16 3 -8 -4 -29 -17 -46 -12 -17
-16 -27 -9 -23 11 7 12 6 2 -6 -11 -13 -13 -19 -13 -36 0 -5 -5 -1 -10 7 -8
13 -10 12 -10 -3 0 -10 -5 -15 -10 -12 -6 4 -10 3 -9 -2 3 -18 -14 -53 -26
-53 -7 0 -16 -7 -19 -16 -3 -8 -11 -12 -16 -9 -6 4 -9 3 -8 -2 1 -4 -3 -18
-10 -29 -6 -12 -8 -25 -4 -29 4 -5 1 -5 -5 -1 -8 4 -14 2 -15 -6 0 -7 -2 -18
-2 -24 -1 -6 -8 -20 -16 -30 -9 -10 -10 -15 -3 -10 9 5 11 2 7 -8 -3 -9 -10
-16 -16 -16 -5 0 -7 -4 -4 -9 3 -5 -1 -12 -10 -15 -13 -5 -14 -9 -4 -21 10
-12 10 -15 -1 -15 -11 0 -11 -2 1 -10 8 -5 10 -10 5 -10 -6 0 -9 -19 -6 -46 2
-36 0 -45 -10 -39 -7 5 -6 -1 4 -15 11 -16 13 -28 7 -41 -7 -12 -6 -19 3 -22
8 -4 8 -6 -2 -6 -11 -1 -10 -5 5 -17 10 -8 13 -13 7 -9 -14 7 -18 -21 -5 -29
11 -6 9 -36 -3 -55 -5 -9 -4 -12 2 -8 12 7 45 -52 37 -65 -3 -4 0 -8 5 -8 6 0
11 -7 11 -15 0 -8 5 -15 10 -15 6 0 10 -7 10 -15 0 -8 5 -15 11 -15 5 0 7 -4
4 -10 -3 -6 1 -7 9 -4 9 4 18 -1 22 -10 3 -9 10 -13 16 -10 5 3 18 -2 28 -11
16 -15 22 -15 35 -5 12 10 15 9 15 -6 0 -16 2 -17 10 -4 6 10 10 11 10 3 0 -7
5 -13 11 -13 5 0 7 6 4 13 -4 6 -1 5 7 -4 15 -18 42 -14 31 4 -3 7 -2 8 3 4
10 -9 12 -77 3 -71 -4 2 -12 -3 -18 -10 -9 -10 -9 -16 -1 -21 15 -9 -9 -38
-26 -31 -7 3 -16 1 -19 -5 -4 -5 -11 -6 -17 -3 -7 4 -8 2 -4 -5 4 -6 12 -9 17
-6 5 4 9 2 9 -4 0 -5 -6 -12 -12 -14 -10 -4 -10 -6 0 -6 6 -1 12 -6 12 -12 0
-6 -8 -8 -17 -5 -16 5 -16 5 -2 -6 14 -12 14 -15 -3 -32 -10 -11 -18 -27 -18
-37 0 -10 -5 -21 -10 -24 -6 -4 -8 -11 -5 -16 4 -5 1 -9 -5 -9 -6 0 -9 -4 -6
-9 3 -5 -2 -15 -12 -22 -15 -12 -16 -12 -5 1 8 11 9 20 1 30 -8 12 -9 12 -4
-2 3 -10 1 -20 -5 -24 -7 -4 -6 -10 1 -19 8 -9 7 -17 -5 -29 -9 -8 -15 -18
-15 -21 1 -4 -2 -10 -6 -13 -4 -4 -4 -1 0 6 4 7 1 12 -8 12 -15 0 -21 12 -17
34 1 4 -4 15 -11 24 -11 13 -11 15 2 7 8 -4 5 2 -7 14 -13 12 -23 29 -23 37 0
8 -4 12 -10 9 -5 -3 -10 3 -10 14 0 12 -4 21 -10 21 -5 0 -10 7 -10 15 0 21
-41 66 -53 58 -6 -3 -7 -1 -3 5 4 7 -3 17 -18 24 -27 12 -33 23 -16 33 15 9
12 25 -6 25 -8 0 -13 4 -10 9 10 15 -25 22 -42 9 -11 -9 -14 -9 -9 -1 4 6 2
15 -4 18 -5 4 -8 14 -5 22 3 8 1 11 -4 8 -14 -9 -13 18 1 32 9 9 7 11 -7 8
-11 -1 -18 -7 -17 -12 1 -5 -4 -10 -12 -10 -8 0 -12 4 -9 9 3 4 -2 8 -10 8 -9
0 -16 7 -16 16 0 8 -4 12 -10 9 -5 -3 -10 -1 -10 6 0 7 -3 10 -6 6 -8 -7 -28
12 -36 34 -4 11 -16 15 -33 14 -23 -3 -24 -1 -13 13 10 12 10 14 1 8 -8 -4
-13 -2 -13 6 0 10 -2 10 -9 0 -6 -10 -10 -7 -13 12 -3 14 0 27 5 29 6 2 4 6
-5 10 -12 4 -16 1 -13 -13 2 -12 -2 -17 -13 -15 -9 2 -21 4 -25 4 -5 1 -5 6
-2 11 4 6 -5 10 -20 10 -22 0 -26 4 -20 18 5 13 3 14 -6 5 -9 -9 -14 -9 -24 0
-10 9 -9 14 4 24 13 11 11 11 -12 3 -36 -13 -40 -13 -31 3 5 7 2 7 -10 -2 -9
-8 -16 -10 -15 -5 1 5 1 16 0 24 -1 13 -2 13 -11 0 -8 -12 -10 -12 -10 -1 0
11 -3 11 -17 0 -11 -10 -14 -10 -9 -1 5 8 -1 12 -18 12 -14 0 -26 5 -26 10 0
6 -13 10 -30 10 -22 0 -30 5 -31 18 0 10 -3 12 -6 5 -2 -7 -9 -13 -14 -13 -6
0 -8 4 -5 9 4 5 -3 7 -14 4 -11 -3 -20 0 -20 6 0 6 -5 11 -11 11 -5 0 -8 -4
-5 -8 3 -5 -1 -9 -9 -9 -8 0 -12 4 -10 8 3 3 -6 9 -20 11 -14 3 -25 1 -25 -6
0 -6 -7 -2 -15 8 -11 14 -15 16 -15 5 0 -12 -2 -12 -9 0 -7 11 -9 11 -14 0 -3
-8 -6 -9 -6 -3 -1 5 -14 9 -31 8 -16 -1 -30 1 -30 6 0 4 -11 5 -25 2 -14 -2
-22 -9 -19 -16 3 -6 -1 -3 -9 7 -11 14 -16 15 -20 5 -4 -9 -6 -9 -6 -1 -1 8
-10 9 -28 4 -16 -5 -36 -7 -45 -5 -10 1 -18 -2 -18 -8 0 -7 -5 -7 -13 1 -10 8
-17 7 -25 -1 -9 -9 -12 -9 -12 0 0 10 -5 10 -21 1 -16 -8 -20 -8 -14 1 6 9 2
9 -14 1 -12 -7 -26 -9 -31 -6 -6 3 -10 0 -10 -7 0 -11 -2 -10 -9 0 -6 11 -10
10 -15 -3 -5 -14 -9 -15 -21 -5 -11 9 -15 9 -15 1 0 -7 -4 -9 -10 -6 -5 3 -10
2 -10 -4 0 -6 -7 -8 -15 -5 -8 4 -15 1 -15 -6 0 -6 -4 -8 -10 -5 -5 3 -18 1
-28 -4 -13 -7 -23 -6 -32 2 -10 9 -11 9 -6 0 4 -8 -2 -15 -19 -19 -14 -3 -25
-10 -25 -15 0 -4 -9 -6 -20 -4 -13 3 -18 0 -14 -7 5 -7 -2 -9 -22 -4 -18 4
-24 3 -16 -2 11 -7 8 -11 -10 -17 -12 -4 -27 -6 -32 -6 -5 1 -6 -5 -2 -14 5
-13 2 -14 -15 -4 -15 8 -19 8 -15 0 7 -10 -7 -16 -28 -12 -5 1 -6 -4 -3 -12 3
-8 -3 -13 -15 -14 -11 -1 -26 -10 -34 -20 -7 -10 -14 -14 -14 -8 0 5 -7 -1
-16 -13 -15 -22 -41 -32 -28 -10 4 7 3 8 -5 4 -6 -4 -9 -11 -6 -16 3 -5 -7
-17 -22 -27 -15 -10 -33 -24 -39 -32 -6 -8 -16 -11 -22 -7 -7 4 -10 -1 -7 -14
2 -11 1 -18 -3 -16 -4 3 -14 -9 -21 -25 -8 -20 -18 -28 -28 -25 -9 4 -13 0
-11 -11 2 -10 -4 -18 -12 -19 -37 -3 -41 -5 -34 -16 5 -8 2 -9 -12 -4 -10 4
-16 4 -12 1 3 -4 -1 -15 -10 -25 -8 -11 -16 -28 -17 -39 -1 -17 1 -19 14 -9 9
6 -1 -5 -22 -26 -26 -24 -37 -42 -33 -53 5 -13 4 -13 -7 -4 -12 9 -13 7 -10
-12 5 -27 -22 -61 -40 -50 -7 4 -3 -6 7 -22 14 -22 15 -26 4 -17 -17 14 -34 0
-23 -18 3 -5 -2 -10 -11 -10 -16 0 -16 -1 2 -15 10 -8 15 -15 9 -14 -5 1 -17
1 -25 0 -13 -1 -13 -2 0 -11 13 -9 13 -10 0 -11 -8 -1 -18 -1 -22 0 -8 1 -3
-34 8 -50 4 -7 -1 -7 -16 1 -20 11 -21 10 -10 -9 6 -13 7 -21 1 -21 -5 0 -8
-9 -6 -21 3 -16 0 -19 -12 -15 -14 6 -14 4 -2 -11 12 -15 12 -16 -5 -9 -20 7
-20 7 0 -15 10 -12 13 -19 7 -15 -7 4 -21 2 -30 -4 -17 -11 -17 -11 0 -6 21 7
23 -10 2 -18 -9 -3 -15 -11 -14 -18 3 -27 -1 -49 -10 -44 -4 3 -7 -8 -5 -25 3
-22 0 -28 -9 -23 -9 6 -9 5 0 -8 7 -8 9 -19 5 -23 -4 -5 -1 -5 6 0 11 6 12 3
3 -14 -6 -11 -9 -32 -7 -46 3 -14 0 -25 -6 -25 -6 0 -7 8 -3 18 5 13 4 14 -6
5 -10 -10 -9 -15 1 -28 7 -8 9 -15 5 -15 -4 0 -1 -7 6 -17 13 -15 12 -15 -10
-4 -13 7 -21 8 -17 3 3 -6 3 -12 -1 -15 -5 -2 -3 -2 4 -1 16 4 24 -21 10 -35
-8 -8 -8 -11 1 -11 7 0 12 -5 12 -11 0 -5 -4 -8 -8 -5 -5 3 -9 -1 -9 -9 0 -8
5 -15 10 -15 5 0 4 -7 -3 -15 -7 -8 -8 -15 -3 -15 10 0 10 -60 -1 -78 -4 -7
-3 -12 2 -12 5 0 9 -13 8 -30 0 -20 -6 -29 -15 -27 -7 1 -15 -6 -17 -16 -2
-14 2 -16 18 -11 14 4 18 2 14 -5 -4 -6 -13 -11 -20 -11 -7 0 -13 -7 -13 -15
0 -8 5 -11 11 -7 19 12 58 14 51 2 -10 -17 7 -11 22 8 8 9 12 11 8 4 -5 -9 1
-11 25 -7 17 3 29 2 26 -3 -2 -4 10 -6 27 -4 18 1 45 3 60 2 21 0 26 3 21 12
-6 10 -4 10 8 0 12 -10 17 -10 20 -1 3 8 9 9 19 4 19 -13 42 -12 51 0 5 6 8 5
8 -4 0 -11 3 -11 15 -1 12 10 15 10 15 0 0 -10 3 -10 15 0 12 10 15 10 15 -1
0 -11 2 -11 10 1 8 12 10 12 10 1 0 -10 3 -11 13 -2 10 8 17 7 26 -2 11 -9 14
-9 18 1 4 10 8 10 21 0 18 -15 22 -15 33 4 7 10 9 10 9 -2 0 -13 1 -13 10 0 8
12 10 12 10 1 0 -11 3 -11 15 -1 12 10 15 10 15 0 0 -10 3 -10 15 0 12 10 15
10 15 0 0 -10 3 -10 15 0 12 10 15 10 15 0 0 -10 3 -10 15 0 8 7 15 8 15 3 0
-5 9 -9 20 -10 12 -1 18 3 14 9 -4 7 0 7 13 0 11 -6 25 -7 33 -2 9 5 19 5 27
-2 9 -7 13 -7 13 1 0 7 5 9 13 4 16 -10 37 -13 37 -5 0 4 11 7 25 7 14 0 25
-4 25 -10 0 -5 5 -3 10 5 5 8 10 10 10 4 0 -12 29 -12 49 1 10 6 12 4 6 -6 -8
-12 -6 -12 8 0 9 7 17 9 17 4 0 -5 9 -9 20 -10 13 -1 18 2 13 10 -4 8 -1 8 9
-1 10 -8 19 -9 22 -3 7 10 24 10 43 -2 6 -4 14 -1 16 5 4 10 6 10 6 1 1 -7 6
-13 12 -13 5 0 8 3 6 8 -3 4 10 8 29 9 19 1 34 -1 34 -5 0 -4 16 -8 35 -9 20
-1 33 2 31 6 -3 4 1 8 9 8 8 0 12 -4 9 -9 -8 -13 10 -10 25 5 11 10 13 10 7 0
-9 -16 6 -17 21 -2 7 7 13 8 17 0 4 -6 15 -7 30 -1 15 5 27 5 35 -3 8 -8 11
-8 11 2 0 11 3 11 17 0 19 -16 23 -16 34 3 7 10 9 10 9 0 0 -9 5 -10 19 -2 14
7 22 7 26 0 5 -8 12 -7 23 2 12 10 14 10 8 1 -4 -7 -3 -13 1 -13 5 0 15 6 22
13 11 10 13 10 7 0 -9 -16 -1 -16 25 -3 14 8 19 7 19 -1 0 -8 4 -8 15 1 10 8
15 9 15 1 0 -7 8 -8 24 -1 15 5 27 5 34 -2 6 -6 12 -6 16 1 5 8 13 8 27 1 14
-8 19 -7 19 1 0 9 3 9 14 0 11 -9 15 -9 19 1 4 10 6 10 6 -1 1 -11 4 -11 16
-1 12 10 15 10 15 0 0 -10 3 -10 14 -1 11 9 15 9 19 -1 4 -10 6 -10 6 1 1 11
4 11 16 1 9 -7 15 -8 15 -2 0 11 18 11 37 -1 6 -4 14 -1 16 5 4 10 6 10 6 0 1
-9 6 -10 20 -2 14 7 21 6 24 -3 4 -9 6 -8 6 2 1 11 4 11 16 1 12 -10 15 -10
15 0 0 9 4 9 13 2 18 -15 29 -15 38 0 7 10 9 10 9 1 0 -7 5 -13 11 -13 5 0 7
6 4 13 -4 6 1 3 9 -7 12 -15 16 -16 16 -5 0 12 2 12 10 -1 8 -12 10 -12 10 5
0 13 3 16 8 8 7 -12 92 -25 90 -14 -2 18 3 31 11 31 6 0 8 -10 6 -22 -4 -16
-2 -19 7 -10 20 20 17 50 -4 44 -19 -5 -25 12 -8 23 6 4 7 11 4 17 -4 7 -2 8
4 4 7 -4 12 -3 12 3 0 6 8 7 18 4 16 -7 16 -6 0 11 -22 22 -23 27 -1 19 11 -4
14 -3 9 5 -4 7 -2 12 4 12 7 0 9 7 6 16 -5 14 -4 15 9 4 13 -11 14 -10 9 4 -5
12 0 19 16 23 16 4 18 8 8 14 -10 7 -10 9 0 9 6 0 12 6 12 13 0 7 9 18 21 25
12 8 18 9 15 3 -4 -5 -2 -12 4 -16 5 -3 10 0 10 8 0 8 7 17 15 21 8 3 15 17
15 31 0 18 -4 24 -12 19 -10 -6 -10 -5 -1 8 7 8 10 18 6 21 -3 4 -1 7 5 7 6 0
9 7 5 17 -4 11 -3 14 5 9 7 -4 12 -1 12 9 0 11 5 15 15 11 8 -3 22 -3 30 0 14
6 13 8 -1 19 -18 12 -30 50 -13 39 5 -3 9 4 9 16 0 12 5 18 10 15 9 -5 15 15
11 38 0 4 4 7 10 7 5 0 7 5 3 12 -5 8 -2 9 11 4 14 -5 15 -4 7 7 -12 14 -11
42 3 54 4 4 5 2 1 -4 -4 -7 -3 -13 2 -13 5 0 12 9 15 20 3 13 1 18 -5 13 -7
-4 -8 -1 -4 6 5 7 14 10 21 7 10 -3 11 2 6 22 -8 27 5 71 24 84 6 5 4 8 -5 8
-12 0 -12 2 -2 9 14 9 13 32 -3 43 -6 4 -2 8 9 8 12 0 16 -5 12 -16 -3 -8 -2
-13 3 -10 10 7 12 56 2 56 -4 0 -7 9 -7 20 0 11 5 19 11 17 5 -3 10 6 10 18 0
15 -5 21 -15 18 -9 -3 -8 1 4 11 13 10 15 16 7 16 -11 0 -11 3 0 17 12 14 12
16 0 8 -11 -6 -13 -3 -9 13 4 12 1 22 -4 22 -7 0 -6 5 1 14 9 11 9 15 -1 20
-7 3 -4 4 7 3 11 -2 26 4 33 13 8 8 11 9 7 3 -3 -7 -1 -13 4 -13 6 0 11 4 11
8 0 5 7 9 15 9 11 0 12 -4 4 -13 -8 -9 -5 -11 10 -7 14 3 21 1 21 -8 0 -11 2
-11 10 1 8 13 10 12 10 -2 0 -10 5 -18 11 -18 5 0 7 -4 4 -10 -4 -6 1 -7 11
-3 12 4 15 3 10 -6 -5 -8 0 -10 18 -7 18 3 29 -2 41 -20 8 -13 23 -24 31 -24
11 0 15 -6 12 -18 -4 -13 1 -18 16 -17 12 0 28 4 36 9 8 5 12 6 8 1 -8 -9 15
-35 32 -35 6 0 8 -4 5 -10 -3 -5 0 -10 7 -10 8 0 20 -9 28 -20 8 -11 20 -20
27 -20 7 0 13 -6 13 -12 0 -9 4 -8 10 2 6 9 10 10 10 3 0 -7 12 -24 28 -39 15
-15 18 -21 7 -13 -18 13 -19 13 -6 -3 7 -10 20 -18 27 -18 8 0 13 -6 11 -12
-1 -7 4 -12 11 -10 19 4 45 -26 38 -43 -3 -9 1 -15 11 -15 19 0 42 -28 43 -52
0 -10 4 -18 9 -18 6 0 4 -15 -4 -33 -12 -30 -12 -33 5 -34 10 -1 20 5 22 13 2
11 6 9 16 -7 11 -17 11 -20 0 -14 -7 4 1 -4 17 -18 17 -14 31 -30 31 -36 1 -6
2 -22 3 -36 1 -17 9 -29 24 -35 20 -8 21 -9 2 -10 -11 -1 -14 -4 -7 -7 6 -2
10 -9 6 -14 -3 -5 0 -9 7 -9 8 0 7 -5 -2 -17 -10 -11 -10 -14 -1 -9 12 7 15
-5 15 -56 0 -10 3 -15 8 -13 4 3 10 1 14 -5 3 -5 1 -10 -6 -10 -9 0 -9 -3 0
-14 9 -11 9 -16 0 -22 -9 -5 -9 -10 2 -18 8 -6 14 -18 14 -26 -1 -8 3 -21 8
-27 6 -9 5 -13 -2 -13 -7 0 -9 -5 -6 -10 4 -6 12 -7 18 -3 8 5 8 2 0 -9 -7 -8
-10 -18 -6 -22 10 -10 13 -37 3 -31 -5 3 -8 -3 -7 -14 1 -12 6 -17 16 -13 9 3
12 1 7 -6 -4 -7 -2 -13 3 -13 6 -1 17 -2 24 -3 6 -2 19 1 26 5 8 4 26 3 39 -2
14 -6 21 -5 17 1 -6 10 47 6 66 -6 8 -4 9 -3 5 4 -9 15 -1 15 25 2 13 -8 19
-7 19 0 0 8 6 8 20 0 11 -6 20 -7 20 -2 0 10 36 9 46 -1 13 -13 47 32 42 57
-3 14 -2 23 2 21 5 -3 11 2 14 11 3 9 2 12 -4 9 -11 -7 -7 36 5 55 3 5 2 10
-4 10 -10 0 -9 19 2 38 5 7 3 12 -3 12 -8 0 -7 6 1 21 9 17 8 23 -2 30 -10 6
-10 9 -2 9 7 0 10 7 6 17 -5 12 -3 14 7 8 8 -5 11 -4 6 3 -3 5 -1 12 6 14 7 3
5 7 -6 11 -11 5 -15 3 -10 -5 4 -7 3 -8 -5 -4 -9 6 -9 11 0 22 6 8 7 14 2 14
-12 0 -4 53 10 61 12 8 48 -21 41 -33 -3 -4 2 -5 11 -2 17 7 17 -16 0 -28 -6
-5 -5 -8 3 -8 7 0 10 -5 6 -12 -5 -8 0 -9 14 -6 12 4 22 2 22 -4 0 -5 5 -6 10
-3 6 3 10 -3 10 -14 0 -12 9 -26 20 -33 11 -7 20 -18 20 -25 0 -7 5 -13 11
-13 8 0 7 -5 -1 -16 -11 -13 -10 -16 8 -21 12 -3 22 -10 22 -15 0 -5 -4 -7 -8
-4 -5 3 -9 -1 -9 -8 0 -9 7 -12 16 -8 9 3 13 2 9 -3 -4 -4 -2 -15 5 -23 6 -9
7 -13 1 -9 -6 3 -11 0 -11 -8 0 -8 3 -12 7 -10 3 2 11 -5 18 -15 9 -14 9 -21
0 -26 -7 -5 -8 -3 -3 6 5 9 4 11 -4 6 -9 -6 -9 -11 0 -22 11 -13 6 -18 -14
-15 -5 1 -6 -3 -2 -9 3 -6 11 -8 16 -5 5 4 9 1 9 -5 0 -6 4 -8 10 -5 6 3 7 -1
4 -9 -3 -9 -1 -16 5 -16 6 0 11 6 11 13 0 8 4 7 10 -3 5 -8 10 -10 10 -4 0 7
7 15 16 18 8 3 12 2 9 -4 -3 -6 -2 -10 4 -10 5 0 12 6 14 13 4 8 8 9 14 1 10
-14 44 -14 61 -1 9 7 16 7 20 0 9 -13 42 -13 42 0 0 5 7 4 16 -4 13 -10 17
-10 25 2 5 8 9 9 9 2 0 -12 17 -12 38 0 7 5 12 3 12 -5 0 -9 3 -9 10 2 5 8 10
10 10 5 0 -6 9 -11 20 -12 13 -1 18 2 14 9 -5 7 -2 8 7 3 17 -11 50 -12 67 -1
6 4 12 2 12 -3 0 -6 10 -9 23 -7 12 2 28 -2 36 -8 11 -8 13 -8 7 2 -9 15 6 16
22 0 9 -9 12 -9 12 0 0 8 7 9 26 2 18 -7 23 -7 18 1 -4 8 0 8 15 0 11 -7 21
-8 21 -4 0 4 14 8 30 8 17 0 30 -4 30 -10 0 -5 5 -3 10 5 9 13 10 13 10 0 0
-13 1 -13 10 0 9 13 10 13 10 0 0 -13 1 -13 10 0 8 13 10 13 10 -2 0 -9 5 -20
12 -24 6 -4 8 -3 5 3 -4 6 5 15 19 22 14 6 23 7 20 3 -8 -14 60 -8 73 6 9 9 9
12 -1 12 -10 0 -10 2 1 9 8 5 12 19 9 35 -3 14 0 27 6 30 8 3 8 5 0 5 -8 1 -9
14 -4 41 4 22 4 37 0 35 -4 -3 -7 6 -6 20 0 14 5 25 10 25 5 0 3 7 -4 15 -7 8
-9 15 -4 15 5 0 2 5 -6 10 -12 8 -12 10 -1 10 11 0 11 3 0 17 -8 10 -9 14 -2
10 8 -5 11 3 10 28 -1 19 -6 35 -12 35 -5 0 -3 5 5 10 13 9 13 10 0 10 -13 0
-13 1 0 10 8 5 10 10 4 10 -6 0 -11 7 -11 15 0 8 5 15 11 15 6 0 5 4 -3 9 -8
5 -11 16 -8 25 4 9 1 16 -6 16 -8 0 -6 4 3 10 10 6 11 10 3 10 -7 0 -13 5 -13
11 0 5 4 7 10 4 6 -3 7 1 4 9 -3 9 -11 13 -17 9 -6 -3 -7 -1 -3 6 4 6 2 19 -6
28 -11 15 -11 16 6 9 19 -6 19 -6 3 12 -13 14 -14 21 -4 31 9 10 8 11 -7 5
-16 -6 -17 -5 -6 16 9 18 9 21 0 15 -8 -5 -11 -3 -8 6 3 8 -1 19 -8 26 -7 7
-10 22 -7 34 4 14 2 20 -4 16 -6 -4 -9 4 -7 18 1 14 -2 25 -8 25 -6 0 -7 7 -4
15 3 9 -1 18 -8 21 -8 3 -13 13 -12 22 2 9 -5 23 -14 32 -9 8 -9 11 -1 5 11
-8 10 -3 -3 23 -9 18 -14 38 -10 45 4 7 4 9 -1 5 -10 -9 -47 31 -40 43 3 4 -5
15 -17 24 l-23 17 25 -6 c21 -5 20 -3 -5 8 -16 8 -29 18 -28 23 1 4 -6 6 -15
5 -13 -3 -14 -1 -3 12 11 13 11 17 -3 22 -9 3 -14 10 -11 14 3 4 -2 11 -11 14
-8 3 -12 10 -9 16 3 5 0 7 -9 4 -11 -4 -14 1 -12 19 2 18 -1 24 -10 20 -8 -3
-14 0 -14 6 0 6 -7 11 -15 11 -8 0 -15 7 -15 16 0 8 -4 12 -10 9 -5 -3 -10 -1
-10 5 0 18 -24 37 -39 32 -8 -3 -11 0 -7 7 4 6 2 11 -4 11 -6 0 -8 5 -4 12 5
8 2 9 -9 5 -11 -4 -17 -1 -17 8 0 8 -7 15 -16 15 -9 0 -12 5 -8 12 5 8 0 9
-15 5 -14 -3 -24 0 -28 9 -3 8 -12 14 -20 14 -8 0 -11 5 -8 10 6 9 -8 14 -28
11 -5 -1 -6 3 -3 8 3 5 -2 15 -11 22 -14 12 -16 12 -8 0 5 -10 4 -12 -3 -7 -7
4 -12 15 -12 24 0 15 -2 15 -10 2 -8 -13 -10 -12 -10 3 0 17 -1 17 -16 3 -19
-19 -25 -20 -22 -4 2 7 -4 12 -12 13 -8 1 -14 6 -13 12 1 6 -6 9 -17 6 -11 -3
-20 0 -20 6 0 6 -9 11 -20 11 -11 0 -20 5 -20 11 0 5 -4 7 -10 4 -5 -3 -10 -1
-10 5 0 6 -4 8 -10 5 -5 -3 -10 -1 -10 4 0 6 -13 11 -30 11 -16 0 -30 5 -30
11 0 5 -4 8 -9 4 -5 -3 -13 0 -17 6 -4 8 -9 7 -15 -2 -7 -12 -9 -12 -9 0 0 7
-6 11 -15 7 -8 -3 -15 0 -15 7 0 8 -4 6 -10 -3 -6 -10 -10 -11 -10 -2 0 6 -12
12 -26 12 -17 0 -23 4 -19 13 4 6 0 3 -9 -7 -14 -18 -16 -18 -22 -2 -5 14 -9
15 -15 4 -7 -10 -9 -10 -9 0 0 9 -5 10 -18 3 -10 -5 -24 -6 -32 -1 -8 5 -22 4
-32 -1 -13 -7 -18 -6 -18 3 0 10 -2 10 -9 -1 -6 -10 -10 -10 -16 -1 -6 9 -10
9 -16 -1 -7 -11 -9 -11 -9 -1 0 10 -5 10 -20 2 -15 -8 -20 -8 -20 1 0 8 -4 8
-13 1 -8 -7 -18 -7 -27 -2 -9 6 -17 5 -22 -3 -6 -9 -8 -8 -8 2 0 11 -3 11 -15
1 -8 -7 -24 -10 -35 -7 -11 3 -20 2 -20 -2 0 -4 -8 -8 -17 -9 -34 -4 -52 -8
-59 -14 -3 -4 -12 -4 -20 -1 -8 3 -14 0 -14 -7 0 -6 -5 -8 -10 -5 -6 3 -13 -1
-16 -10 -6 -13 -8 -14 -15 -3 -7 10 -9 10 -9 1 0 -7 -9 -13 -20 -13 -11 0 -20
-5 -20 -11 0 -7 -10 -9 -25 -7 -13 3 -24 2 -23 -1 2 -19 -4 -22 -17 -11 -13
11 -14 10 -9 -4 6 -15 -5 -21 -29 -17 -5 1 -6 -3 -2 -9 3 -5 1 -10 -5 -10 -6
0 -8 -5 -4 -12 6 -10 4 -10 -8 0 -13 10 -17 10 -22 -3 -3 -9 -10 -13 -16 -10
-9 5 -14 -7 -12 -26 1 -4 -8 -4 -20 -1 -17 4 -20 2 -15 -11 4 -12 1 -15 -14
-12 -15 3 -19 0 -15 -11 4 -12 2 -12 -14 -4 -16 9 -18 7 -15 -10 3 -18 -6 -25
-28 -21 -5 1 -6 -3 -2 -9 3 -5 -1 -13 -9 -16 -9 -3 -16 -12 -16 -20 0 -8 -5
-14 -11 -14 -5 0 -7 5 -3 12 4 7 3 8 -4 4 -6 -4 -8 -14 -5 -24 6 -15 5 -15
-10 -3 -15 12 -17 12 -11 -4 5 -12 4 -16 -4 -11 -7 4 -10 -1 -7 -15 4 -17 2
-19 -11 -8 -12 10 -13 9 -8 -6 5 -12 4 -16 -4 -11 -13 8 -26 -29 -16 -45 4 -8
3 -9 -5 -5 -6 4 -18 3 -24 -3 -10 -8 -13 -3 -11 19 1 17 -3 30 -8 30 -6 0 -5
6 2 15 10 12 10 15 0 15 -10 0 -10 3 0 15 9 10 9 15 1 15 -6 0 -11 6 -11 14 0
8 -3 16 -7 19 -5 2 -3 3 2 2 6 -2 10 8 10 20 0 19 -3 21 -14 12 -12 -10 -12
-9 -2 11 9 17 9 22 0 22 -7 0 -5 9 7 23 10 12 12 16 4 10 -22 -20 -26 -16 -22
23 3 26 1 35 -7 30 -6 -4 -11 -4 -10 1 1 4 1 25 0 46 -1 26 -5 36 -13 31 -8
-5 -9 0 -6 14 4 12 2 22 -4 22 -5 0 -6 10 -3 21 5 15 4 19 -4 15 -12 -8 -10
28 2 40 11 11 8 26 -3 19 -7 -4 -8 3 -4 21 4 17 3 25 -3 21 -6 -4 -8 3 -5 18
2 15 0 25 -7 25 -13 0 -10 22 4 32 6 5 4 8 -5 8 -9 0 -16 8 -16 19 0 10 5 17
12 14 6 -2 17 4 25 14 13 16 12 17 -3 5 -14 -11 -18 -10 -31 9 -9 12 -13 28
-10 35 3 8 -1 14 -8 14 -11 0 -11 2 1 10 12 8 12 10 -3 16 -10 3 -17 17 -17
31 0 15 -4 22 -11 17 -8 -4 -8 0 0 15 9 16 9 21 0 21 -7 0 -9 3 -6 7 4 3 0 17
-9 31 -9 13 -12 22 -6 18 6 -4 8 2 5 15 -3 11 -12 23 -19 26 -8 3 -14 11 -14
19 0 8 -5 14 -11 14 -5 0 -8 4 -5 9 9 14 -5 42 -16 35 -7 -4 -6 0 0 12 11 20
-8 61 -21 47 -4 -3 -7 0 -7 7 0 7 -8 19 -17 27 -12 10 -13 12 -3 8 9 -4 8 -1
-3 8 -13 11 -15 16 -5 20 9 3 7 7 -7 13 -11 4 -22 11 -25 14 -3 4 -11 5 -18 3z
m-402 -1137 c0 -3 -4 -8 -10 -11 -5 -3 -10 -1 -10 4 0 6 5 11 10 11 6 0 10 -2
10 -4z m-1915 -85 c-3 -6 -11 -11 -17 -11 -6 0 -6 6 2 15 14 17 26 13 15 -4z
m-253 -569 c-7 -2 -9 -9 -6 -14 4 -7 2 -8 -4 -4 -6 4 -9 13 -6 21 4 8 11 12
17 8 8 -5 7 -8 -1 -11z m2221 -513 c-8 -8 -13 -7 -18 2 -5 8 -4 10 3 5 7 -4
12 -2 12 5 0 7 3 9 7 6 4 -4 2 -12 -4 -18z"/>
<path d="M1115 4640 c3 -5 8 -10 11 -10 2 0 4 5 4 10 0 6 -5 10 -11 10 -5 0
-7 -4 -4 -10z"/>
<path d="M600 4300 c-9 -6 -10 -10 -3 -10 6 0 15 5 18 10 8 12 4 12 -15 0z"/>
<path d="M2537 4180 c-3 -11 -1 -23 4 -26 5 -3 9 6 9 20 0 31 -6 34 -13 6z"/>
<path d="M406 4033 c-6 -14 -5 -15 5 -6 7 7 10 15 7 18 -3 3 -9 -2 -12 -12z"/>
<path d="M2660 3959 c0 -5 5 -7 10 -4 6 3 10 8 10 11 0 2 -4 4 -10 4 -5 0 -10
-5 -10 -11z"/>
<path d="M2635 3950 c3 -5 8 -10 11 -10 2 0 4 5 4 10 0 6 -5 10 -11 10 -5 0
-7 -4 -4 -10z"/>
<path d="M3101 3805 c-1 -15 -3 -17 -10 -6 -6 9 -11 10 -15 2 -4 -6 -5 -11 -1
-11 3 0 -1 -13 -10 -30 -10 -20 -12 -30 -4 -30 8 0 9 -4 0 -13 -6 -8 -7 -17
-3 -21 4 -4 0 -13 -10 -20 -22 -16 -26 -49 -8 -71 8 -11 10 -16 4 -12 -16 9
-34 -35 -35 -85 0 -10 -5 -18 -10 -18 -6 0 -7 -4 -4 -10 4 -6 -1 -7 -11 -3
-12 4 -15 3 -10 -5 4 -7 2 -12 -5 -12 -8 0 -8 -4 1 -15 10 -12 9 -16 -4 -21
-10 -4 -15 -13 -12 -20 3 -8 0 -13 -7 -11 -7 1 -11 -4 -9 -10 1 -7 -2 -13 -7
-13 -5 0 -8 -8 -7 -17 2 -10 -3 -24 -11 -31 -7 -8 -11 -17 -8 -22 3 -4 -5 -6
-17 -3 -19 4 -20 3 -8 -6 10 -7 11 -11 2 -11 -6 0 -11 -3 -11 -7 3 -20 -2 -34
-11 -28 -5 3 -7 0 -4 -8 3 -9 -10 -28 -33 -47 -21 -18 -32 -29 -25 -26 6 4 12
2 12 -3 0 -6 -5 -11 -10 -11 -6 0 -15 -10 -20 -22 -5 -14 -9 -17 -10 -8 0 13
-1 13 -10 0 -14 -21 -12 -33 3 -24 8 5 7 2 -2 -10 -8 -9 -20 -15 -27 -12 -8 3
-11 0 -7 -10 3 -7 0 -14 -6 -14 -6 0 -11 -5 -11 -11 0 -17 -62 -109 -73 -109
-5 0 -4 -7 3 -15 11 -13 10 -14 -4 -9 -10 4 -16 1 -16 -7 0 -8 -6 -5 -15 7
-10 13 -14 15 -15 5 0 -8 -3 -12 -6 -8 -3 3 -12 1 -19 -6 -10 -9 -10 -14 1
-22 12 -8 12 -15 -1 -39 -8 -15 -13 -32 -10 -36 3 -5 -5 -6 -17 -2 -14 3 -19
1 -14 -6 3 -6 1 -14 -5 -18 -8 -4 -7 -9 2 -15 11 -7 11 -9 -2 -9 -19 0 -33
-26 -22 -42 4 -7 1 -8 -7 -3 -10 6 -12 4 -7 -9 5 -13 3 -17 -7 -13 -9 4 -17
-2 -21 -14 -4 -10 -11 -19 -16 -19 -6 0 -7 -4 -4 -10 3 -5 2 -10 -2 -10 -11 0
-43 -70 -43 -94 0 -9 -4 -15 -8 -12 -4 2 -9 -4 -9 -15 -1 -12 3 -17 10 -13 7
4 2 -3 -10 -15 -25 -23 -32 -41 -10 -22 10 8 14 7 14 -4 0 -8 -2 -13 -5 -10
-8 8 -42 -15 -41 -28 0 -9 2 -9 6 1 2 6 9 12 14 12 5 0 3 -13 -6 -30 -10 -19
-11 -30 -5 -30 6 0 8 -5 5 -10 -4 -6 -12 -7 -18 -4 -8 5 -8 3 1 -7 14 -15 17
-43 3 -35 -4 3 -6 -12 -4 -34 3 -26 1 -40 -6 -40 -8 0 -9 -6 -3 -17 5 -10 8
-43 8 -73 -1 -30 3 -58 9 -62 6 -5 6 -8 -2 -8 -6 0 -9 -9 -6 -20 3 -12 0 -20
-8 -20 -8 0 -5 -6 7 -16 10 -8 13 -12 5 -8 -11 5 -13 3 -8 -10 4 -10 7 -31 7
-47 0 -20 4 -28 12 -23 7 5 8 3 3 -7 -11 -17 -16 -59 -7 -58 19 3 23 -3 12
-17 -11 -12 -11 -15 0 -12 8 2 14 -12 17 -42 2 -24 9 -48 16 -52 9 -6 9 -8 -1
-8 -7 0 -10 -5 -7 -10 4 -6 12 -7 18 -4 7 4 9 4 5 -1 -4 -4 -3 -14 3 -22 9
-10 8 -13 -2 -13 -8 0 -6 -6 7 -16 10 -8 13 -13 7 -9 -7 3 -13 2 -13 -4 0 -5
6 -12 13 -14 6 -3 3 -6 -8 -7 l-20 -1 20 -9 c11 -5 14 -9 7 -9 -10 -1 -10 -4
2 -16 8 -8 19 -15 25 -15 6 0 11 -10 11 -22 0 -19 2 -20 10 -8 9 14 12 7 9
-16 0 -4 4 -10 9 -13 6 -3 12 -13 14 -21 3 -17 36 -50 49 -50 5 0 6 -7 3 -15
-4 -8 -1 -15 5 -15 15 0 51 -37 43 -44 -3 -3 0 -6 6 -6 7 0 12 -5 12 -11 0 -5
-6 -7 -12 -3 -7 4 -6 1 2 -7 8 -8 20 -21 28 -29 12 -13 13 -13 6 0 -5 11 -4
12 4 5 7 -6 13 -23 14 -37 1 -15 6 -24 10 -22 4 3 8 0 8 -6 0 -6 5 -8 10 -5 6
3 10 -3 10 -14 0 -12 5 -21 11 -21 6 0 8 -7 5 -16 -3 -8 -2 -12 4 -9 6 3 10 1
10 -4 0 -6 -6 -11 -12 -11 -8 -1 -6 -6 5 -14 14 -11 15 -15 5 -19 -10 -4 -10
-6 1 -6 11 -1 11 -4 0 -18 -12 -14 -12 -16 0 -8 11 6 13 4 8 -8 -3 -9 -2 -19
3 -22 5 -3 6 -13 3 -22 -4 -10 -2 -14 3 -10 6 3 10 -8 10 -28 0 -18 -4 -31 -8
-29 -5 3 -8 0 -8 -5 0 -6 5 -11 10 -11 6 0 10 -5 10 -11 0 -5 -4 -8 -8 -5 -5
3 -9 -1 -9 -9 0 -8 5 -11 11 -8 6 4 5 -1 -3 -10 -9 -11 -10 -17 -2 -17 6 0 11
-9 11 -21 0 -13 -4 -18 -12 -13 -10 6 -10 4 0 -8 9 -12 10 -18 2 -23 -6 -4 -9
-13 -7 -19 3 -7 -1 -13 -9 -13 -7 0 -11 4 -8 9 3 4 1 8 -5 8 -5 0 -8 9 -6 20
2 13 -2 20 -11 20 -8 0 -14 5 -14 10 0 6 -7 10 -16 10 -8 0 -12 5 -9 10 6 9
-8 14 -20 8 -6 -4 -39 44 -41 59 -1 7 2 11 7 7 14 -8 11 6 -5 21 -7 8 -16 11
-20 8 -3 -4 -6 1 -6 11 0 9 -4 14 -10 11 -5 -3 -11 -1 -11 4 -1 6 -3 14 -4 19
-2 4 -6 17 -10 29 -4 13 -11 21 -15 18 -9 -6 -22 23 -15 34 2 4 -2 8 -10 8 -8
0 -15 -5 -15 -11 0 -6 -8 1 -17 14 -10 14 -25 34 -35 44 -10 11 -18 26 -18 33
0 7 -4 13 -10 13 -5 0 -10 9 -10 21 0 11 -4 17 -10 14 -6 -3 -7 1 -4 10 4 9
13 14 22 10 12 -4 12 -2 4 8 -7 8 -8 18 -4 23 4 4 0 3 -8 -3 -19 -13 -44 -3
-48 19 -2 13 2 16 15 11 17 -6 17 -6 1 10 -9 9 -28 18 -42 19 -19 2 -22 5 -14
15 7 9 7 13 -1 13 -6 0 -11 6 -11 14 0 8 -6 17 -12 19 -10 4 -10 6 0 6 10 1 9
5 -3 17 -13 14 -14 19 -3 25 7 5 8 9 3 9 -6 0 -17 -6 -24 -12 -10 -9 -12 -9
-7 -1 3 6 2 15 -4 18 -8 5 -7 12 2 23 10 12 10 14 1 8 -8 -4 -13 -1 -13 8 0 9
-4 16 -8 16 -5 0 -9 6 -9 13 -1 22 -8 41 -21 55 -10 11 -10 17 -1 28 10 12 8
13 -7 8 -10 -4 -16 -4 -12 1 4 4 2 15 -5 23 -10 13 -9 14 3 7 12 -7 11 -4 -2
17 -13 20 -14 28 -5 31 8 4 8 6 -2 6 -11 1 -11 4 -1 16 10 12 10 15 -3 15 -10
0 -15 7 -12 20 2 11 1 20 -3 20 -4 0 -8 9 -9 20 -1 11 2 18 6 16 4 -3 8 1 8 9
0 8 -3 13 -6 12 -3 -1 -6 3 -6 8 0 6 4 9 8 7 4 -1 0 9 -9 23 -11 18 -13 25 -4
25 10 0 10 3 0 15 -7 8 -9 15 -4 15 5 0 2 5 -6 10 -8 5 -10 10 -4 10 14 0 14
30 0 30 -6 0 -4 5 4 10 12 8 12 10 -5 10 -15 0 -17 2 -6 9 11 7 11 9 0 14 -11
4 -11 6 -1 6 7 1 10 6 6 12 -11 18 -10 89 1 89 6 0 3 5 -5 10 -12 8 -12 10 -1
10 11 0 11 3 1 15 -10 12 -9 15 6 15 11 0 15 3 9 8 -13 8 -18 55 -5 47 4 -3
11 2 14 11 3 8 2 12 -4 9 -6 -3 -10 -1 -10 4 0 6 4 11 8 11 4 0 6 15 4 34 -2
20 1 37 9 41 8 6 10 4 4 -5 -6 -9 -4 -11 4 -5 9 5 10 10 2 18 -13 13 -15 30
-2 23 5 -3 11 3 14 14 3 11 2 18 -2 16 -4 -3 -7 4 -7 14 0 10 4 16 8 14 4 -3
8 4 8 15 0 25 32 45 48 29 10 -10 10 -6 3 31 -1 2 -8 -2 -16 -9 -20 -17 -19
-6 1 15 13 12 14 18 4 30 -10 12 -16 13 -26 4 -11 -9 -14 -8 -14 0 0 7 -5 9
-12 5 -18 -11 -48 -12 -48 -2 0 4 -5 8 -11 8 -5 0 -7 -5 -3 -11 5 -8 1 -8 -14
0 -25 13 -35 14 -28 3 3 -5 -1 -9 -9 -9 -8 0 -15 5 -15 11 0 6 -5 4 -10 -4 -5
-8 -10 -10 -10 -3 0 12 -18 12 -39 -1 -7 -5 -16 -4 -20 1 -7 11 -71 12 -64 1
2 -5 0 -8 -6 -8 -5 0 -11 5 -13 11 -3 9 -10 9 -26 0 -12 -6 -22 -8 -22 -3 0 5
-7 9 -15 9 -8 0 -15 -4 -15 -9 0 -5 -8 -4 -18 1 -10 5 -24 6 -32 1 -7 -4 -24
-4 -37 1 -12 5 -23 5 -23 0 0 -4 -7 -8 -15 -8 -8 0 -15 3 -15 7 0 4 -10 6 -22
4 -13 -1 -23 -3 -23 -4 0 -1 -8 -3 -17 -5 -10 -2 -18 0 -18 5 0 8 -43 5 -59
-5 -6 -3 -11 -2 -11 3 0 5 -7 9 -15 9 -8 0 -15 -4 -15 -9 0 -5 -8 -4 -18 1
-10 5 -24 6 -32 1 -7 -4 -24 -4 -37 1 -12 5 -23 5 -23 0 0 -4 -7 -8 -15 -8 -8
0 -15 3 -15 6 0 9 -63 7 -78 -3 -7 -4 -12 -2 -12 4 0 7 -6 8 -17 1 -10 -5 -26
-5 -40 0 -14 5 -23 5 -23 -1 0 -12 -22 -9 -31 4 -4 4 -15 4 -25 -2 -11 -6 -27
-7 -41 -1 -13 5 -23 5 -23 0 0 -4 -7 -8 -15 -8 -8 0 -15 3 -15 7 0 4 -10 6
-23 4 -12 -1 -22 -3 -22 -4 0 -1 -8 -3 -17 -5 -10 -2 -18 2 -18 8 0 7 -5 5
-10 -3 -5 -8 -10 -10 -10 -3 0 12 -17 12 -37 0 -8 -5 -13 -3 -13 4 0 8 -5 7
-17 -2 -18 -16 -23 -16 -33 1 -5 9 -13 9 -26 2 -11 -6 -27 -7 -41 -1 -16 6
-23 5 -23 -4 0 -8 -3 -8 -9 2 -6 9 -11 10 -15 2 -5 -8 -13 -8 -27 -1 -14 8
-19 7 -19 -1 0 -8 -4 -9 -13 0 -10 8 -17 7 -25 -1 -7 -7 -12 -8 -12 -3 0 6
-25 11 -56 13 -43 2 -54 0 -48 -10 6 -10 5 -11 -8 -1 -8 7 -18 10 -21 7 -10
-11 -51 -10 -59 0 -12 18 -22 -46 -10 -65 10 -15 9 -17 -6 -12 -15 6 -14 4 3
-16 16 -19 17 -24 5 -31 -13 -9 -8 -14 11 -12 4 1 7 -10 7 -23 0 -14 -5 -22
-11 -18 -6 3 -7 1 -3 -6 6 -9 11 -9 21 -1 11 9 12 6 8 -12 -3 -13 -11 -30 -17
-38 -9 -13 -9 -13 6 -2 11 9 18 10 23 2 3 -5 1 -10 -6 -10 -7 0 -2 -9 11 -20
13 -11 17 -20 10 -20 -7 0 -5 -7 7 -17 10 -10 13 -14 6 -9 -10 6 -12 4 -7 -8
3 -9 13 -16 21 -16 9 0 13 -6 9 -15 -3 -8 0 -15 5 -15 7 0 9 -11 6 -25 -2 -14
-2 -23 1 -21 11 12 41 -15 35 -31 -4 -11 -3 -14 5 -9 7 4 15 1 18 -8 3 -9 11
-13 16 -10 6 4 5 -3 -2 -16 -10 -19 -9 -22 9 -27 12 -3 21 -10 21 -15 0 -5 5
-6 10 -3 6 3 10 1 10 -6 0 -6 12 -23 27 -37 22 -19 24 -23 8 -18 -16 5 -16 3
5 -13 13 -11 29 -17 34 -14 5 3 6 1 2 -5 -4 -7 -2 -12 4 -12 6 0 8 -5 5 -10
-4 -6 -1 -9 7 -8 7 2 12 -3 10 -11 -3 -12 -1 -12 14 0 12 9 15 9 10 2 -4 -8
-2 -13 4 -13 6 0 8 -5 3 -12 -15 -24 -11 -36 10 -30 15 4 18 2 12 -9 -7 -12
-6 -12 7 -1 13 11 18 7 33 -24 11 -25 20 -33 25 -24 5 9 11 6 22 -9 8 -11 18
-18 23 -13 5 4 5 2 1 -5 -3 -7 2 -14 14 -18 11 -3 20 -12 20 -18 0 -7 14 -18
30 -25 17 -8 28 -18 25 -22 -3 -5 6 -20 19 -33 14 -14 23 -27 21 -29 -2 -2 6
-5 18 -5 12 -1 23 -7 25 -13 2 -5 8 -8 13 -5 5 4 6 -1 3 -9 -4 -11 0 -16 11
-16 17 0 17 -2 -1 -22 l-19 -21 30 19 c16 10 26 14 22 7 -4 -6 -3 -14 3 -18 6
-4 8 -10 5 -15 -3 -4 5 -6 17 -4 13 2 17 2 11 -2 -7 -3 -13 -10 -13 -15 0 -6
4 -8 9 -5 4 3 19 -3 31 -14 15 -13 18 -20 9 -20 -8 0 -3 -6 11 -13 14 -7 25
-19 25 -27 0 -11 9 -14 29 -12 18 3 26 0 22 -7 -4 -6 0 -11 9 -11 9 0 14 -4
10 -9 -3 -5 1 -16 9 -24 11 -10 12 -17 4 -25 -8 -8 -5 -9 11 -5 13 3 21 1 21
-6 0 -7 5 -9 10 -6 6 3 10 -1 10 -9 0 -9 3 -15 8 -15 25 4 34 -2 23 -15 -12
-14 -1 -29 24 -32 6 0 15 -2 22 -2 7 -1 10 -9 6 -19 -4 -10 -2 -14 4 -10 10 7
29 -38 24 -57 -1 -5 5 -3 15 4 14 13 19 11 34 -8 10 -12 23 -22 29 -22 6 0 11
-6 11 -14 0 -7 12 -22 27 -32 50 -32 91 -82 79 -95 -8 -9 -8 -10 2 -4 14 8 56
-28 45 -39 -4 -3 -1 -6 6 -6 7 0 9 -5 6 -10 -4 -6 -1 -9 6 -8 7 2 18 -7 24
-19 5 -13 13 -23 18 -23 4 0 5 5 2 10 -11 18 4 11 28 -14 14 -14 28 -22 32
-18 5 4 6 -3 3 -15 -5 -17 -2 -21 13 -18 11 2 17 0 14 -6 -4 -5 -1 -9 4 -9 6
0 11 -7 11 -16 0 -8 5 -12 10 -9 6 3 10 -1 10 -10 0 -9 3 -14 8 -11 4 2 18 -2
32 -11 14 -8 17 -12 8 -9 -12 3 -15 1 -12 -9 3 -8 13 -11 22 -8 12 5 14 2 9
-11 -4 -10 -3 -15 3 -11 6 3 10 1 10 -5 0 -6 5 -8 10 -5 6 3 10 2 10 -4 0 -5
-6 -12 -12 -14 -8 -3 -6 -6 5 -6 9 -1 17 -5 17 -11 0 -5 10 -14 23 -20 20 -10
20 -10 5 3 -10 8 -18 18 -18 22 0 5 9 0 20 -10 11 -10 20 -26 20 -35 0 -10 7
-21 16 -24 15 -6 15 -4 3 11 -13 16 -12 17 4 4 9 -7 17 -22 17 -32 0 -13 5
-17 17 -12 13 5 15 2 10 -12 -6 -15 -5 -16 8 -5 13 11 14 10 9 -5 -6 -14 -4
-16 6 -10 10 6 12 3 8 -13 -4 -12 -1 -25 4 -29 7 -3 8 -1 4 5 -4 7 -2 12 3 12
6 0 11 -4 11 -10 0 -5 7 -10 16 -10 18 0 46 -25 37 -34 -4 -3 2 -6 13 -6 16 0
17 -2 4 -10 -13 -8 -12 -10 3 -10 12 0 16 -4 11 -12 -5 -8 -1 -8 12 2 10 8 16
11 12 6 -3 -4 6 -20 21 -34 15 -15 22 -24 17 -20 -19 15 -27 8 -11 -8 8 -9 23
-13 32 -10 13 5 14 4 4 -8 -9 -11 -8 -15 4 -20 11 -4 14 -2 10 7 -4 6 0 4 8
-5 11 -14 16 -15 27 -5 10 10 10 8 0 -11 -11 -22 -10 -23 12 -20 19 2 23 -1
21 -22 -1 -14 1 -19 3 -12 8 17 24 15 24 -4 0 -10 5 -14 16 -10 8 3 13 2 9 -3
-3 -5 0 -11 5 -13 6 -2 12 -13 13 -25 1 -21 2 -21 20 -5 10 9 18 12 17 7 -2
-6 -1 -13 0 -17 3 -9 7 -24 9 -34 0 -4 8 -1 16 6 9 8 15 9 15 2 0 -6 -5 -14
-11 -17 -7 -5 -5 -13 5 -24 9 -10 13 -22 9 -26 -5 -5 0 -3 10 4 15 12 20 11
35 -6 9 -11 26 -25 37 -32 11 -7 13 -10 4 -8 -9 3 -16 -1 -16 -9 0 -7 4 -11 9
-8 5 3 18 -2 29 -12 14 -12 19 -14 17 -5 -2 7 3 16 10 18 8 3 10 -1 5 -13 -6
-16 -5 -17 9 -4 8 8 13 21 11 28 -4 8 0 10 13 5 13 -5 16 -3 11 10 -5 12 1 19
19 23 21 5 23 9 12 22 -12 14 -10 14 11 3 13 -7 21 -8 17 -3 -3 6 -1 14 5 17
5 4 8 13 5 21 -3 8 -2 13 2 13 4 -1 16 -1 27 0 17 1 18 3 5 11 -11 7 -11 10
-2 10 7 0 10 4 7 10 -3 5 0 7 8 4 8 -3 18 0 22 6 5 8 11 8 20 0 9 -8 11 -4 7
17 -5 26 -4 27 13 13 17 -14 18 -14 5 10 -12 23 -12 24 4 11 14 -12 16 -12 10
3 -3 9 -1 16 5 16 6 0 11 -4 11 -10 0 -5 7 -7 15 -4 14 6 13 8 -2 20 -17 13
-17 13 1 14 13 0 16 5 12 16 -5 14 -4 15 9 4 13 -11 14 -10 10 3 -4 8 -2 18 4
22 6 3 11 2 11 -4 0 -5 12 -8 28 -7 22 3 27 8 27 30 1 14 -4 26 -9 26 -6 0 1
8 14 17 14 9 29 23 33 30 7 11 12 12 23 2 12 -9 13 -9 9 3 -4 9 0 15 9 15 8 0
13 -4 10 -9 -3 -4 -1 -8 4 -8 5 0 12 10 16 23 5 18 8 20 16 7 5 -8 10 -11 10
-6 0 5 -7 17 -16 27 -15 16 -14 17 3 13 20 -5 43 14 47 38 1 7 6 20 11 28 8
13 7 13 -8 1 -9 -7 -14 -17 -11 -22 3 -5 0 -9 -5 -9 -16 0 -13 15 7 33 15 13
21 14 31 4 10 -9 11 -9 6 4 -3 9 1 22 10 29 10 8 15 9 15 1 0 -6 5 -11 11 -11
6 0 8 9 4 20 -4 14 -2 20 7 18 7 -2 12 2 11 9 -2 7 4 10 12 7 8 -4 12 -11 8
-17 -3 -6 -1 -7 6 -3 6 4 9 12 6 17 -4 5 -1 9 5 9 6 0 8 5 4 12 -4 7 -3 8 5 4
6 -4 8 -13 4 -19 -3 -7 3 -3 15 7 23 20 30 32 12 21 -6 -3 -10 -1 -10 4 0 6 5
11 11 11 5 0 8 3 6 7 -6 11 30 43 39 35 4 -4 4 2 0 12 -5 16 -4 17 8 7 12 -10
16 -8 21 8 3 11 12 18 19 15 8 -3 16 4 19 16 3 12 10 19 16 15 7 -4 8 0 4 11
-5 14 -3 16 11 11 10 -4 15 -3 11 3 -3 6 -1 10 5 10 6 0 8 5 4 11 -4 7 1 7 16
-1 13 -7 20 -8 16 -2 -3 6 -2 13 4 17 6 4 8 11 5 16 -3 5 2 6 11 2 12 -4 15
-3 10 5 -4 7 -2 12 4 12 6 0 8 5 4 13 -6 9 -4 9 8 -1 14 -11 16 -10 11 9 -4
15 -3 20 5 15 7 -4 12 -2 12 4 0 7 6 10 14 7 8 -3 13 1 12 11 0 9 4 17 9 17 6
0 19 6 30 13 19 12 19 13 -5 8 -19 -5 -17 -2 8 9 29 14 37 25 33 47 0 4 6 5
14 2 22 -9 38 5 25 21 -8 10 -8 15 1 21 8 4 9 3 5 -4 -4 -7 -2 -12 3 -12 6 0
11 7 11 16 0 10 6 14 15 11 8 -4 17 -1 21 5 5 7 2 8 -7 3 -8 -4 -4 2 9 14 12
12 22 26 22 31 0 6 5 10 11 10 5 0 7 -5 4 -10 -3 -6 -1 -10 5 -10 6 0 8 -4 5
-10 -3 -6 1 -7 10 -3 9 3 13 9 8 12 -11 8 -17 45 -6 38 4 -3 17 2 28 10 19 15
19 15 1 9 -16 -5 -17 -4 -6 9 7 8 16 12 21 10 4 -3 13 4 19 15 7 14 17 19 27
16 14 -6 14 -4 2 11 -12 15 -12 16 3 10 10 -3 20 -1 24 5 4 6 3 8 -4 4 -6 -3
-13 -2 -16 3 -4 5 7 7 23 5 16 -3 32 0 36 6 3 6 11 8 16 5 5 -4 9 -1 9 4 0 14
-13 14 -27 0 -8 -8 -13 -7 -18 2 -5 8 -4 10 4 5 6 -4 14 0 17 8 3 9 10 14 14
11 5 -3 12 -1 15 5 4 6 1 9 -6 8 -6 -2 -14 3 -17 11 -3 8 0 11 6 7 13 -8 54
33 46 45 -3 5 2 6 10 3 9 -3 16 -1 16 6 0 6 5 8 12 4 8 -5 9 -2 5 9 -3 9 -3
16 1 16 17 -3 32 2 31 9 -3 19 2 23 16 12 11 -9 15 -9 15 -1 0 7 5 9 12 5 7
-4 8 -3 4 5 -4 6 -11 9 -16 6 -5 -3 -12 0 -16 7 -4 7 -4 10 0 6 4 -3 16 2 27
13 10 10 27 19 37 19 14 0 15 2 2 10 -13 8 -12 10 3 10 9 0 17 5 17 10 0 6 5
10 11 10 5 0 7 -6 3 -12 -4 -7 -3 -9 1 -5 13 12 15 37 2 37 -5 0 -7 3 -4 6 4
4 15 1 24 -7 10 -7 15 -10 11 -5 -11 13 20 39 38 32 10 -4 13 -2 7 7 -4 6 -8
19 -10 27 -1 11 1 11 11 -3 12 -16 14 -16 20 -2 3 9 2 13 -4 10 -6 -3 -10 -1
-10 4 0 6 7 11 15 11 9 0 12 6 8 18 -5 14 -3 13 10 -3 l16 -20 2 20 c1 11 1
25 0 30 -1 6 7 -1 18 -15 17 -22 19 -22 18 -5 -1 11 -6 24 -12 28 -6 5 -1 7
12 4 16 -4 20 -1 16 11 -4 10 -2 13 5 8 10 -6 16 4 14 25 -1 3 6 6 13 6 11 0
12 -4 3 -14 -8 -11 -7 -12 6 -7 9 3 16 15 16 25 0 11 7 19 18 19 14 0 15 2 2
10 -13 9 -8 14 12 11 4 0 10 8 13 19 7 22 25 27 25 8 0 -9 3 -8 9 2 6 8 8 17
5 21 -2 4 3 9 11 13 8 3 15 15 15 27 0 18 2 19 15 9 13 -11 14 -10 9 3 -3 10
2 21 15 28 16 11 18 16 8 28 -8 10 -8 13 -1 8 7 -4 24 3 38 14 23 18 25 23 14
37 -9 11 -9 14 -1 9 7 -5 16 1 23 12 6 13 17 18 28 15 14 -5 14 -4 3 4 -12 9
-12 13 -2 26 9 11 10 16 2 16 -7 0 -6 9 5 25 9 14 23 25 30 25 8 0 14 5 14 10
0 6 -6 10 -12 10 -9 0 -10 3 -2 8 6 4 10 15 8 25 -2 15 0 16 14 5 9 -7 14 -8
10 -4 -4 5 -2 16 5 24 9 13 9 14 0 8 -7 -4 -13 -2 -13 3 0 6 4 11 10 11 5 0 8
10 6 22 -1 12 3 29 11 36 10 10 11 18 3 27 -7 9 -6 16 5 25 11 9 12 17 4 32
-8 15 -8 19 0 14 11 -7 12 2 12 122 1 42 4 60 11 56 7 -4 8 -2 4 5 -4 6 -11 9
-16 6 -5 -3 -11 -1 -15 5 -3 5 2 10 11 10 13 0 15 3 7 11 -14 14 -5 41 11 32
7 -4 7 -2 -1 8 -10 12 -10 18 0 28 9 10 8 11 -8 6 -19 -6 -19 -6 -2 8 16 13
16 15 2 21 -9 3 -13 2 -10 -4 3 -6 2 -10 -3 -10 -6 0 -13 -7 -16 -16 -3 -8 -2
-13 3 -10 5 3 11 0 14 -8 4 -10 0 -12 -14 -9 -10 3 -19 0 -19 -6 0 -6 -5 -11
-12 -11 -9 0 -9 3 0 12 15 15 15 28 1 28 -5 0 -7 -4 -4 -10 3 -5 -1 -10 -10
-10 -13 0 -14 -4 -4 -22 l12 -23 -23 20 -23 20 12 -22 c11 -21 8 -27 -11 -24
-5 0 -8 -3 -8 -9 0 -5 -5 -10 -11 -10 -5 0 -7 5 -3 12 4 7 3 8 -5 4 -9 -6 -9
-11 0 -22 16 -20 4 -17 -17 4 -17 16 -17 16 -12 -6 6 -20 4 -21 -9 -10 -14 12
-15 11 -5 -9 9 -17 9 -22 -4 -27 -8 -3 -13 -10 -9 -15 3 -5 0 -13 -6 -17 -8
-4 -9 -3 -5 4 4 7 1 12 -8 12 -13 0 -14 -5 -6 -27 9 -26 9 -27 -5 -9 -14 18
-15 18 -15 2 0 -10 -5 -14 -11 -11 -6 4 -9 1 -7 -6 1 -8 1 -14 -2 -14 -3 0
-16 -9 -28 -21 -15 -14 -20 -28 -17 -40 6 -17 6 -18 -5 -1 -6 9 -16 17 -23 17
-8 0 -6 -4 3 -11 11 -8 12 -12 2 -16 -6 -2 -9 -10 -5 -16 4 -7 0 -8 -11 -4
-14 6 -17 3 -12 -9 5 -12 2 -15 -10 -10 -12 4 -15 2 -10 -9 3 -8 1 -15 -3 -15
-5 0 -12 6 -14 13 -4 10 -6 10 -6 0 -1 -7 -9 -13 -18 -13 -16 0 -16 -2 -3 -11
12 -9 11 -10 -7 -6 -16 4 -20 1 -16 -11 5 -11 2 -14 -9 -10 -8 4 -21 2 -29 -4
-11 -8 -11 -9 2 -5 9 3 16 -1 16 -8 0 -7 -6 -11 -13 -8 -7 3 -23 -2 -34 -10
l-22 -15 21 -7 c21 -6 21 -7 -4 -27 -14 -11 -22 -25 -18 -31 4 -6 0 -8 -10 -4
-11 4 -17 1 -17 -9 0 -8 -5 -12 -10 -9 -6 4 -7 12 -3 18 4 7 0 6 -10 -2 -17
-14 -24 -26 -9 -17 5 3 9 -2 9 -10 0 -9 -4 -11 -10 -5 -5 5 -16 7 -23 4 -8 -3
-14 0 -14 7 0 6 5 8 10 5 6 -3 10 -1 10 4 0 6 -5 11 -12 11 -6 0 -8 3 -4 8 4
4 12 7 17 7 5 0 9 3 9 8 0 4 0 9 0 12 0 3 -10 1 -22 -6 -22 -11 -22 -10 -6 7
16 16 16 18 0 30 -15 12 -14 12 8 7 24 -5 25 -5 5 11 -16 13 -17 17 -6 25 10
7 11 9 1 13 -8 2 -13 21 -13 46 0 24 -5 42 -11 42 -7 0 -6 3 2 8 9 6 7 13 -8
29 -18 20 -18 22 -2 28 16 6 16 7 -2 20 -11 8 -16 21 -13 30 4 8 2 15 -3 15
-5 0 -6 7 -3 17 4 10 2 14 -5 9 -7 -4 -10 4 -10 22 1 16 -3 35 -8 43 -9 14
-14 34 -16 57 -1 6 -11 12 -24 12 -12 0 -25 6 -27 13 -4 9 -6 9 -6 -1 -1 -7
-6 -10 -13 -6 -7 4 -8 3 -4 -5 4 -6 12 -8 18 -5 7 4 8 2 4 -4 -4 -6 -14 -8
-22 -5 -13 5 -14 3 -6 -13 7 -14 6 -24 -4 -38 -7 -10 -11 -24 -7 -29 4 -6 0
-8 -8 -5 -11 4 -14 -1 -13 -23 1 -16 -2 -32 -7 -35 -5 -3 -7 -9 -4 -14 3 -5 1
-11 -5 -15 -6 -4 -7 -12 -3 -18 4 -7 -1 -6 -10 2 -15 12 -17 12 -11 -3 4 -12
2 -15 -9 -10 -8 3 -18 1 -21 -5 -4 -6 -14 -8 -24 -5 -9 3 -5 -2 11 -11 27 -16
36 -35 16 -35 -5 0 -7 5 -3 12 4 7 3 8 -4 4 -6 -4 -8 -14 -5 -23 4 -11 2 -14
-5 -9 -7 4 -10 0 -7 -12 2 -10 -1 -25 -7 -33 -8 -11 -9 -10 -4 4 3 9 1 17 -4
17 -6 0 -10 -8 -10 -17 0 -15 -2 -16 -10 -3 -7 11 -10 11 -10 2 0 -8 -5 -10
-12 -6 -8 5 -7 0 2 -11 14 -17 13 -18 -2 -12 -13 4 -15 2 -11 -10 4 -10 2 -14
-5 -9 -6 3 -13 2 -17 -4 -4 -6 -10 -8 -14 -6 -4 3 -8 -2 -8 -10 0 -10 4 -11
11 -4 5 5 14 10 20 10 5 0 -2 -9 -15 -20 -13 -11 -33 -27 -43 -37 -11 -10 -16
-13 -13 -7 3 6 0 11 -7 11 -8 0 -12 -6 -10 -12 7 -18 -23 -38 -46 -32 -15 4
-25 -2 -37 -19 -8 -14 -18 -22 -21 -19 -3 2 -12 -1 -20 -8 -13 -10 -14 -9 -7
3 7 12 6 13 -6 3 -8 -6 -27 -10 -42 -9 -15 2 -27 0 -27 -5 0 -14 -60 25 -66
44 -4 12 -10 15 -17 9 -8 -6 -19 -3 -32 11 -11 11 -15 17 -9 14 6 -3 11 0 11
7 0 8 -7 12 -15 9 -10 -4 -13 1 -11 19 2 14 -2 33 -10 42 -12 14 -12 16 5 10
18 -5 18 -4 -1 11 -22 18 -23 24 -3 36 10 7 10 9 -2 9 -13 0 -13 1 0 10 12 8
12 10 1 10 -10 0 -11 3 -2 14 8 10 9 16 1 21 -7 4 -7 12 0 25 5 10 10 32 10
49 0 16 6 32 13 34 9 4 9 6 -1 6 -8 1 -10 6 -6 13 12 19 12 48 1 48 -5 0 -4 7
3 15 10 12 10 15 -1 15 -11 0 -11 2 1 10 13 9 13 10 0 10 -13 0 -13 1 0 10 13
9 13 10 0 10 -13 0 -13 1 0 10 10 6 11 10 3 10 -7 0 -13 5 -13 11 0 5 5 7 11
3 8 -5 8 -1 0 14 -8 15 -8 22 2 25 9 4 8 6 -2 6 -11 1 -11 4 0 17 10 13 10 17
0 23 -10 7 -10 13 -2 30 7 12 8 21 2 21 -5 0 -8 15 -7 33 1 17 -2 38 -7 45 -7
8 -4 12 9 12 17 0 17 1 -2 15 -10 8 -15 15 -10 15 5 0 2 8 -5 17 -12 15 -12
16 1 8 13 -8 13 -7 0 9 -8 10 -15 30 -15 45 0 17 -6 25 -15 23 -11 -2 -10 2 3
12 17 13 17 14 0 20 -14 6 -15 9 -4 15 11 7 10 11 -4 18 -12 7 -14 12 -6 18 9
5 9 10 0 21 -6 7 -9 20 -6 29 4 8 -1 21 -9 30 -9 8 -12 15 -8 15 4 0 -1 7 -12
16 -17 14 -17 15 -1 10 15 -5 16 -3 6 15 -6 11 -8 23 -5 26 3 3 -2 12 -12 20
-9 8 -11 11 -3 7 9 -5 12 -3 7 4 -4 7 -15 12 -24 12 -15 0 -15 2 -2 10 11 7
11 10 2 10 -7 0 -10 5 -7 10 3 6 1 10 -4 10 -6 0 -11 8 -11 17 0 9 -10 28 -22
42 -13 14 -15 20 -6 13 14 -11 16 -10 11 7 -3 11 -9 19 -13 18 -5 -1 -22 14
-40 33 -23 26 -30 41 -25 60 4 19 3 21 -5 10 -8 -13 -14 -8 -12 11 1 3 -10 5
-24 3 -21 -2 -23 0 -13 12 10 13 6 18 -12 16 -4 -1 -5 8 -2 18 4 16 0 20 -21
20 -15 0 -29 7 -32 15 -4 8 -12 15 -20 15 -8 0 -11 6 -7 15 3 9 2 15 -3 14
-21 -4 -35 2 -29 11 3 6 1 10 -4 10 -6 0 -11 -5 -11 -11 0 -13 -24 10 -33 31
-4 11 -6 9 -6 -5z m60 -1080 c29 -6 33 -11 14 -19 -11 -4 -14 -2 -9 6 4 7 3 8
-5 4 -9 -6 -9 -11 1 -24 8 -10 9 -13 1 -9 -6 4 -15 2 -19 -4 -4 -7 -3 -9 2 -6
6 3 16 2 24 -4 12 -7 11 -9 -5 -9 -12 0 -16 -3 -9 -8 12 -8 14 -63 2 -56 -4 3
-8 -7 -8 -21 0 -18 4 -24 13 -19 8 6 8 3 -1 -9 -8 -9 -11 -20 -8 -26 3 -5 2
-21 -4 -35 -7 -20 -6 -27 8 -35 10 -6 12 -11 5 -11 -7 0 -13 -5 -13 -11 0 -5
6 -7 13 -3 8 5 8 2 -2 -9 -11 -14 -11 -17 0 -17 11 0 11 -2 -1 -10 -13 -9 -13
-10 0 -10 13 0 13 -1 0 -10 -12 -8 -12 -10 3 -15 16 -7 16 -8 -1 -24 -10 -9
-13 -13 -6 -8 16 11 26 -19 10 -32 -7 -6 -17 -7 -21 -3 -5 4 -5 1 -1 -5 4 -7
15 -13 24 -14 11 0 13 -2 4 -6 -10 -4 -10 -8 -1 -19 6 -8 8 -14 3 -14 -4 0 1
-7 12 -16 10 -8 13 -13 7 -9 -9 4 -11 1 -7 -9 3 -9 10 -14 14 -11 5 3 12 0 16
-6 4 -7 3 -9 -4 -5 -6 3 -13 2 -17 -3 -3 -6 4 -15 15 -21 16 -9 19 -15 11 -24
-8 -10 -7 -17 4 -26 8 -7 12 -17 8 -24 -5 -7 -2 -7 8 1 12 10 15 8 15 -7 0
-10 -5 -16 -11 -12 -5 3 -4 -2 3 -10 8 -10 20 -14 30 -11 15 6 16 5 2 -12 -14
-17 -13 -18 4 -12 17 7 17 6 5 -10 -8 -9 -9 -14 -2 -10 10 6 25 -6 29 -23 4
-20 18 -40 29 -40 7 0 16 -7 19 -16 3 -8 9 -13 14 -10 4 2 8 -4 8 -14 0 -10
-3 -17 -6 -15 -4 2 -7 -2 -7 -10 0 -8 3 -13 5 -10 3 3 11 0 19 -7 11 -9 12 -7
6 8 -6 18 -6 18 10 2 19 -18 23 -33 7 -23 -5 3 -10 -1 -10 -9 0 -9 -5 -16 -11
-16 -5 0 -7 5 -3 12 4 7 3 8 -4 4 -6 -4 -9 -12 -6 -20 6 -16 -26 -18 -45 -2
-12 9 -12 7 -1 -14 l13 -25 -23 20 c-13 11 -20 15 -16 8 7 -13 -23 -68 -32
-58 -3 3 3 15 14 27 l18 23 -22 -21 c-13 -11 -24 -30 -24 -41 -2 -14 -8 -19
-24 -17 -17 1 -21 -2 -17 -14 5 -11 3 -13 -6 -7 -11 6 -11 3 0 -16 11 -21 11
-23 -3 -11 -13 10 -18 10 -24 1 -4 -8 -3 -9 4 -5 18 11 14 -4 -6 -22 -10 -10
-13 -14 -7 -10 7 5 11 1 10 -10 -4 -31 -17 -52 -34 -53 -11 0 -9 -3 7 -9 26
-11 27 -16 6 -24 -10 -4 -13 -2 -8 7 4 6 3 8 -2 4 -11 -10 -14 -58 -2 -51 4 3
5 10 2 16 -4 7 -2 8 4 4 9 -5 9 -12 0 -26 -7 -10 -16 -16 -20 -14 -4 3 -8 0
-8 -5 0 -6 7 -11 16 -11 8 0 12 -5 9 -10 -4 -6 -11 -8 -16 -5 -5 4 -5 -4 1
-19 7 -19 6 -25 -3 -23 -7 1 -11 -4 -9 -12 3 -12 1 -12 -13 -1 -9 7 -14 19
-11 26 3 7 0 16 -6 20 -7 4 -8 3 -4 -4 4 -7 2 -12 -3 -12 -16 0 -13 21 6 44
13 15 10 14 -10 -3 -28 -26 -34 -23 -17 10 12 22 2 26 -14 5 -9 -13 -13 -13
-26 2 -13 14 -12 15 3 9 9 -3 17 -2 17 3 0 6 -7 10 -15 10 -8 0 -15 9 -15 20
0 23 -10 26 -28 8 -9 -9 -12 -9 -12 2 0 13 -2 13 -11 0 -9 -12 -10 -11 -6 6 3
16 -2 26 -19 35 -13 7 -24 17 -24 23 0 6 -9 17 -20 24 -11 7 -20 17 -20 23 0
5 4 8 9 4 5 -3 13 0 17 6 4 7 3 10 -2 6 -5 -3 -20 1 -34 9 l-25 15 25 -7 25
-6 -23 17 c-13 9 -21 23 -18 31 3 9 0 11 -12 7 -15 -6 -15 -4 -4 9 12 14 10
16 -10 11 -23 -5 -23 -5 -3 11 11 10 14 15 8 11 -9 -4 -13 1 -13 15 0 12 -7
28 -15 37 -8 8 -13 19 -10 24 4 5 -1 6 -9 3 -11 -4 -13 0 -9 15 3 12 1 21 -4
21 -6 0 -9 11 -8 25 2 14 -1 27 -5 30 -5 3 -5 19 0 35 5 19 5 28 -1 25 -5 -4
-9 -1 -9 4 0 6 3 11 8 11 4 0 7 11 7 24 0 13 -4 22 -9 18 -5 -3 -7 2 -3 11 3
10 2 17 -4 17 -6 0 -7 5 -4 10 4 6 10 8 14 6 4 -3 5 8 3 25 -3 20 0 29 9 29
11 0 11 2 -1 10 -8 5 -11 10 -6 10 5 0 3 6 -3 14 -9 10 -8 15 2 19 9 3 13 16
12 31 -2 14 1 26 6 26 6 0 7 5 4 10 -3 6 -1 10 5 10 6 0 10 6 8 13 -3 20 13
58 23 51 5 -3 9 -2 8 3 -1 4 0 11 1 16 4 12 7 26 9 38 0 5 6 7 13 3 6 -4 8 -3
4 4 -3 6 0 26 8 44 8 18 15 27 15 20 1 -7 6 -10 11 -7 6 4 8 11 5 16 -4 5 0 9
7 9 9 0 9 3 -2 10 -11 7 -11 10 -2 10 8 0 10 5 6 12 -5 8 -2 9 11 4 15 -5 16
-4 6 8 -11 13 -9 15 8 11 11 -2 23 0 26 6 4 5 1 9 -5 9 -6 0 -8 5 -5 10 4 6
11 7 17 4 6 -4 8 -2 5 3 -4 6 7 20 24 31 19 12 27 22 20 26 -6 4 -11 2 -11 -3
0 -6 -8 -11 -17 -11 -16 1 -16 2 2 12 11 7 27 12 35 13 9 0 14 8 12 20 -2 17
0 16 13 -5 l15 -25 -6 28 c-4 17 -2 27 6 27 6 0 8 6 4 13 -4 6 -4 9 0 5 4 -3
21 -2 37 4 25 9 28 12 17 26 -10 12 -10 14 -1 8 7 -4 23 -9 34 -11z m964 -225
c3 -5 1 -10 -4 -10 -6 0 -11 5 -11 10 0 6 2 10 4 10 3 0 8 -4 11 -10z m389
-188 c3 -5 -1 -9 -9 -9 -8 0 -12 4 -9 9 3 4 7 8 9 8 2 0 6 -4 9 -8z m-1174
-352 c0 -5 -2 -10 -4 -10 -3 0 -8 5 -11 10 -3 6 -1 10 4 10 6 0 11 -4 11 -10z
m-80 -1404 c0 -3 -4 -8 -10 -11 -5 -3 -10 -1 -10 4 0 6 5 11 10 11 6 0 10 -2
10 -4z m-645 -388 c5 4 5 1 1 -6 -6 -10 -11 -10 -22 -1 -8 6 -14 14 -14 16 0
3 6 0 13 -6 8 -6 18 -7 22 -3z"/>
<path d="M3141 2627 c-8 -10 -7 -14 2 -14 8 0 14 6 14 14 0 7 -1 13 -2 13 -2
0 -8 -6 -14 -13z"/>
<path d="M3133 2551 c0 -11 5 -18 9 -15 4 3 5 11 1 19 -7 21 -12 19 -10 -4z"/>
<path d="M4110 3481 c0 -6 4 -12 8 -15 5 -3 9 1 9 9 0 8 -4 15 -9 15 -4 0 -8
-4 -8 -9z"/>
<path d="M203 3265 c0 -8 4 -12 9 -9 5 3 6 10 3 15 -9 13 -12 11 -12 -6z"/>
<path d="M205 3191 c-3 -5 -2 -12 3 -15 5 -3 9 1 9 9 0 17 -3 19 -12 6z"/>
<path d="M210 3078 c0 -4 4 -8 9 -8 6 0 12 4 15 8 3 5 -1 9 -9 9 -8 0 -15 -4
-15 -9z"/>
<path d="M5055 3040 c3 -5 8 -10 11 -10 2 0 4 5 4 10 0 6 -5 10 -11 10 -5 0
-7 -4 -4 -10z"/>
<path d="M4795 2620 c-3 -5 -1 -10 4 -10 6 0 11 5 11 10 0 6 -2 10 -4 10 -3 0
-8 -4 -11 -10z"/>
<path d="M4147 2575 c-4 -8 -1 -17 6 -21 7 -4 9 -4 5 1 -4 4 -3 14 3 22 7 8 8
13 1 13 -5 0 -12 -7 -15 -15z"/>
<path d="M4460 2269 c-22 -18 -22 -19 -3 -10 12 6 25 16 28 21 9 15 3 12 -25
-11z"/>
<path d="M2340 1820 c0 -5 5 -10 11 -10 5 0 7 5 4 10 -3 6 -8 10 -11 10 -2 0
-4 -4 -4 -10z"/>
<path d="M4630 1820 c0 -5 5 -10 11 -10 5 0 7 5 4 10 -3 6 -8 10 -11 10 -2 0
-4 -4 -4 -10z"/>
<path d="M2377 1583 c-4 -6 0 -13 8 -17 8 -3 17 0 21 6 4 6 3 8 -4 4 -5 -3
-12 -1 -14 6 -3 8 -6 9 -11 1z"/>
<path d="M4185 1429 c-11 -16 -1 -19 13 -3 7 8 8 14 3 14 -5 0 -13 -5 -16 -11z"/>
<path d="M2427 1243 c-11 -10 -8 -20 7 -26 8 -3 13 0 12 8 -3 19 -11 27 -19
18z"/>
<path d="M2554 1080 c0 -13 4 -16 10 -10 7 7 7 13 0 20 -6 6 -10 3 -10 -10z"/>
<path d="M2600 976 c0 -2 8 -10 18 -17 15 -13 16 -12 3 4 -13 16 -21 21 -21
13z"/>
<path d="M3315 620 c3 -5 8 -10 11 -10 2 0 4 5 4 10 0 6 -5 10 -11 10 -5 0 -7
-4 -4 -10z"/>
<path d="M2533 223 c4 -3 1 -13 -6 -22 -11 -14 -10 -14 5 -2 16 12 16 31 1 31
-4 0 -3 -3 0 -7z"/>
<path d="M2850 160 c0 -5 5 -10 11 -10 5 0 7 5 4 10 -3 6 -8 10 -11 10 -2 0
-4 -4 -4 -10z"/>
<path d="M2633 105 c0 -8 4 -15 9 -15 4 0 8 4 8 9 0 6 -4 12 -8 15 -5 3 -9 -1
-9 -9z"/>
</g>
</svg>
